<?xml version="1.0" encoding="utf-8"?>
<!-- Generator: Adobe Illustrator 23.0.1, SVG Export Plug-In . SVG Version: 6.00 Build 0)  -->
<svg version="1.1" id="Layer_1" xmlns="http://www.w3.org/2000/svg" xmlns:xlink="http://www.w3.org/1999/xlink" x="0px" y="0px"
	 viewBox="0 0 200 200" style="enable-background:new 0 0 200 200;" xml:space="preserve">
<style type="text/css">
	.st0{fill:#F26722;}
	.st1{opacity:0.8;}
	.st2{fill:#FFFFFF;}
	.st3{fill:#F26722;fill-opacity:0;}
</style>
<g id="background">
	<rect class="st0" width="200" height="200"/>
</g>
<g id="border">
	<g class="st1">
		<path class="st2" d="M9.5,169.5c0.4-18.8,0.5-35.8,0.2-53.2c-0.2-27,1.4-51.4,1.9-79.8c0-1.5,0.1-3,0.1-4.5c0-1.7,0.1-3.4,0.1-5.1
			c0-5.1,0.1-10.1,0.1-15.1c10.2,0.1,20.2,0.1,30.6,0.2c27.6,1,58,1.6,89.4,1.6c3.4,0.1,13.3,0.5,12.4-0.8
			c6.2,0.2,12.3,0.4,18.5,0.5c3.1,0.1,6.3,0.2,9.4,0.2c4.7,0.1,9.4,0.1,14,0.2c-0.1,6.2-0.2,12.3-0.2,18.4
			c-0.1,4.4-0.1,8.8-0.1,13.2c-0.1,8.8,0,17.5,0.2,26.2c0.1,12.4-1,25.2-0.8,37.6c0.5,20.1-0.9,39.9-0.8,59.6
			c0.1,0.7,0.1,1.6,0.2,2.6c0.1,1.4,0.2,2.9,0.3,4.4c0.2,3,0.3,6.1,0.3,7.7c0,0.5,0,0.9-0.1,1.4c-2.4-0.1-4.9-0.1-7.2-0.2
			c-2.3,0-4.6-0.1-6.9-0.1c-3.3-0.1-6.5-0.1-9.8-0.1c-6.5,0-12.9,0.2-19.2,0.4c-12.7,0.5-25.2,1.2-37.8,1.6
			c-10.1,0.2-17.8,0.6-27.5,0.5c-0.9,0.6-3.2,0.5-5.9,0.7c-7.3,0-48-1.5-51.7-2.2c-0.9-0.2,19.1-0.4,39.1-0.6
			c10-0.1,20.1-0.3,27.5-0.4c7.4-0.1,12.3-0.3,11.9-0.4c-1.9-0.4-53.2,0.1-57.8-0.1c192.1-6.8,100.1-4.8,41.5-2.4
			c-9.1-0.1-22.1,0.9-39.8,1c10.5-0.5,31.9-2.6,37-2.8c23.3-1,19.7-1.8,46.3-1.7c7.5,0,16.9-0.2,26.8-0.4c4.9-0.2,9.9-0.3,14.9-0.5
			c5.8-0.2,7.8-0.3,10.5-0.5c-0.1-1.3-0.1-2.5-0.2-3.7c0-0.6-0.1-1.1-0.1-1.7c0-0.4,0-0.8-0.1-1.2c0-0.5,0-0.9,0-1.4
			c-0.1-3.7-0.2-7-0.3-9.9c0.2,2.4,0.6,5.7,1,9.4c0.1,0.9,0.2,1.9,0.3,2.8c0.1,0.7,0.2,1.4,0.3,2.1c0.2,1.5,0.4,3.1,0.5,4.9
			c-1.4,0.2-3,0.3-4.6,0.5c-0.9,0.1-1.7,0.1-2.6,0.2c-1.1,0.1-2.1,0.1-3.2,0.2c-4.2,0.2-8.3,0.3-11.8,0.2c5.4,0.2,9.9,0.3,13.9,0.2
			c0.9,0,1.8,0,2.7-0.1c0.8,0,1.6-0.1,2.3-0.1c1.5-0.1,2.8-0.2,4.1-0.3c-0.2-2.8-0.5-5.2-0.7-7.4c-0.1-0.5-0.1-1.3-0.2-2
			c-0.1-0.7-0.1-1.5-0.2-2.2c-0.1-1.5-0.2-3.1-0.4-4.7c-0.5-6.5-0.9-14-0.7-24.6c0-3-0.1-6.5-0.4-10.3c0.1-3.6,0.3-7,0.4-11.2
			c0.1-26.6-0.9-49.9-0.5-76c0,2.2-0.6,3.7-0.7,6c-1.2,22.5,0.2,41.7-0.1,65.5c-0.2,4.6,0.8,10.9,0.8,15.8c0.1,9.8-0.6,18.6-1,27.7
			c-0.9-18.3-0.6-39.8-0.8-59.5c-0.1-4.1-0.8-9-1.1-12.2c-0.1,9.1-0.1,18.2-0.1,27.4c0.1,10.8,0.5,22.7,0.9,34.7
			c0.2,6,0.4,12,0.6,17.8c0.1,1.5,0.1,2.9,0.1,4.4c0,0.7,0,1.4,0.1,2.2v1v0.5c0.1,1.2,0.1,2.5,0.2,3.8c-1.1,0-2.3,0.1-3.4,0.1
			c-0.9,0-1.8,0-2.6,0c-1.2,0-2.4,0-3.5,0c-4.6-0.1-8.9-0.2-12.6-0.5c-0.7,0.1-1.4,0.1-2.8,0.2c-0.4-0.1-0.8-0.1-1.4-0.1
			c-4.5,0-9.9-0.1-14.7-0.5l12.4,0.1c5.4-0.4,11-0.6,16.6-0.8c2.6-0.1,5.2-0.2,7.9-0.2c0.7-0.1,1.4-0.1,2-0.2c0-0.7-0.1-1.4-0.1-2.1
			c0-2.7,0-5.4-0.1-8c0-5.9,0-11.8-0.1-17.7c0-11.8-0.1-23.7-0.4-35.3c-0.3-7.8,0.8-20.7,0.5-28.4c-0.3-10.3-0.4-20.9-0.3-31.4
			c0-5.3,0.1-10.6,0.2-15.8l0.1-4l0.1-2v-0.2v-0.1v-0.1v-0.2c0.1-0.7,0.2-1.4,0.2-2.1c-0.6-0.1-1.1-0.2-1.6-0.2
			c-25.3-0.9-50.6-1.7-75.7-2.6c-12.9-0.5-25.8-0.9-38.7-1.4c-6.4-0.2-12.9-0.5-19.3-0.7c-3.2-0.1-6.4-0.2-9.6-0.4l-8.2-0.4
			c-0.2,3.4-0.3,6.7-0.5,10c-0.2,3.8-0.3,7.6-0.5,11.4c-0.3,7.6-0.7,15.2-1,22.8C17.7,79.8,17,94.9,16.3,110c0,1.9,0,3.8,0,5.6
			c0.1-0.8,0.3-1.6,0.4-2.4c-0.1,1.8-0.3,3.5-0.4,5.3c0,10.4-0.2,20.6-0.9,30.7c-0.5,4.1,0-7.3-0.5-10.5c-0.1,2.3-0.2,4.6-0.2,4.6
			s-0.3-0.4-0.6-0.9c0.1,1.8-0.2,2.8-0.4,4.1c0-22.6,0-45.3,0-68.1C13,81.3,13.2,88,13,91.2c0.2,7.6,0.4,15.1,0.1,22
			c0.2,19.2-1.3,39.1-1.7,57.6c-0.2,3.4-0.5,6.8-0.8,10.1C10.1,185.1,9.2,176.4,9.5,169.5z M151.9,22c-6.3-0.4-12.4-0.9-18.8-1.4
			c-2.2-0.1-4.5-0.1-6.7-0.2c-2.8-0.1-5.8-0.1-8.9,0c-12-0.5-23.9-1-35.9-1.5c12,1.2,24.5,2.2,39.6,2.6c-18.3-0.1-35.5-0.8-52.2-1.7
			c-8.4-0.5-16.6-1-24.9-1.5c-4.1-0.2-8.3-0.5-12.4-0.8l-3.2-0.2l-3.8-0.2c-2.6-0.1-5.3-0.2-7.9-0.4c-0.1,2.6-0.2,5.3-0.4,8
			C16.3,30.4,16.2,36.2,16,42c-0.1,5.5-0.2,11.1-0.3,16.8c-0.1,8,0,15.7,0.2,23.4c0.4-10.6,0.8-21.1,1.2-31.6
			c0.4-10.8,0.9-21.5,1.3-32.3c27.1,1.1,54.2,2.3,81.4,3.4c13.5,0.5,27,1,40.5,1.6c6.8,0.2,13.5,0.5,20.3,0.7
			c3.4,0.1,6.8,0.2,10.2,0.3h0.6h0.3h0.6l1.1,0.1l2.1,0.1l-0.2,3.4v0.4v0.1v0.2v0.5l-0.1,2l-0.1,4.1c-0.1,5.5-0.2,11-0.4,16.5
			c-0.2,11-0.4,22-0.5,33.1c0.5-11.1,0.9-22.1,1.4-33.1c0.2-5.5,0.4-11,0.6-16.4l0.2-4.1c0.1-1.3,0.1-3,0.2-3.5
			c0.1-1.5,0.2-3.1,0.3-4.7c-2.7-0.2-4.5-0.4-10.2-0.6C161.7,22.5,156.8,22.3,151.9,22z M163.6,21.2c5.1,0,10.1,0.1,15,0.1
			c0,2.7,0,5.4,0,8.1c0,3.4,0,6.8,0,10.2c-0.3,34-0.5,71.2,1.4,93.2c-0.7-30-1.3-61.1-1.4-93.2c-0.1,13.7-0.1,16.8-0.1,12.4
			c0-4.2,0.1-15.4,0.2-30.9c-3.1,0-6.3,0-9.8,0C168.1,21.2,166.1,21.2,163.6,21.2z"/>
		<path class="st2" d="M19.5,62.3c-1,14.1-1.9,28.4-2.9,42.5c0.9-5.4,1.8-10.1,2.5-16.4c1.6-17.1,1.7-36.3,2.7-54.2
			c0.1-1.2,0.1-2.5,0.2-3.8l0.1-1.9l0.1-1.3c0.1-1.5,0.3-3.1,0.4-4.7c1.8,0.1,3.7,0.3,5.5,0.4h0.3h0.2h0.3H30l2.2,0.1l4.4,0.2
			c5.9,0.2,11.8,0.5,17.8,0.8c11.9,0.5,23.9,0.9,36,1.2c24.2,0.7,48.8,1.1,73.6,1.4c1.4,0,3.5,0.1,5.9,0.1c0.4,0,0.9,0,1.4,0h0.3
			c0.2,0,0.5,0,0.7-0.1l-0.9-0.1h-0.1h-0.1h-0.3h-1.3l-2.5-0.1c-3.4-0.1-6.8-0.2-10.1-0.3c-6.7-0.2-13.4-0.4-20.1-0.5
			c-13.3-0.4-26.5-0.8-39.7-1.1C84.1,24.1,71,23.6,58,23.2c-6.5-0.2-13-0.5-19.5-0.8L28.7,22l-7.1-0.4l-0.2,3.8l-0.1,2l-0.1,2.3
			c-0.2,3.6-0.4,7.2-0.5,10.8C20.3,47.9,19.9,55.1,19.5,62.3z"/>
		<path class="st2" d="M171.3,104.1c0.2,10.1,0.5,20.1,0.4,29.8c0.6-8.8,0.8-20.7,0.9-30.3c-0.1-13.5-0.2-27-0.2-40.4
			C171.9,76.5,171.4,90.1,171.3,104.1z"/>
		<path class="st2" d="M172.4,26.9L173,27l-0.1,0.9l-0.1,0.8c0,1.6-0.1,3.2-0.1,4.8c-0.1,3.2-0.1,6.5-0.1,9.8
			c-0.1,6.6-0.1,13.2-0.1,19.8c0.3-7,0.6-14,0.9-21.1c0.2-3.5,0.3-7,0.5-10.5l0.1-2.6c0-0.1,0-0.3,0-0.3v-0.1v-0.2l0-0.3l0.2-1.7
			c-0.4,0.3-0.6,0.3-0.8,0.2C173.1,26.7,172.8,26.8,172.4,26.9z"/>
	</g>
</g>
<g id="question_x5F_mark">
	<g>
		
			<image style="overflow:visible;opacity:0.37;enable-background:new    ;" width="418" height="532" xlink:href="98C3F2C506BEAF6F.png"  transform="matrix(0.2341 0 0 0.2341 51.9966 44.6539)">
		</image>
		<g>
			<g>
				<path class="st2" d="M76.3,77.4c0,2.3,1.1,4.3,3.4,5.8c0-0.4,0-0.8,0-1.3c0-1.3,0.5-2.3,1.4-3.2s2.1-1.3,3.6-1.3
					c4,0,5.9,2,5.9,5.9c0,2.6-1,4.8-3.1,6.6c-2.1,1.8-4.6,2.6-7.7,2.6c-4,0-7.2-1.3-9.8-4c-2.6-2.7-3.8-6.1-3.8-10.2
					c0-7.6,3.2-13.8,9.7-18.7c6.4-4.9,14.7-7.4,24.8-7.4c10,0,18,2.3,24.1,7s9.1,10.9,9.1,18.5c0,9.7-4.8,16.9-14.3,21.8
					c-1.6,0.8-3.7,1.8-6.2,2.8c-5.3,2.2-8.9,4.4-10.9,6.5s-2.9,4.8-2.9,8.2c0,2.5-0.2,4.2-0.7,5.1c-0.7,1.3-2.2,2-4.3,2
					c-3.8,0-5.7-2.3-5.7-7c0-4.3,1.1-8,3.2-11.1c2.7-3.7,7.7-7.5,14.9-11.5c6.5-3.5,10.7-6.4,12.6-8.5s2.8-5.1,2.8-8.8
					c0-5-2-8.9-6.1-12c-4.1-3-9.4-4.5-16.1-4.5c-6.8,0-12.4,1.6-17,4.8C78.6,68.9,76.3,72.8,76.3,77.4z M95.7,147.7
					c-2.3,0-4.3-0.8-6-2.5s-2.5-3.7-2.5-6s0.8-4.4,2.5-6s3.7-2.5,6-2.5s4.3,0.8,5.9,2.5s2.4,3.7,2.4,6s-0.8,4.4-2.4,6
					C100.1,146.9,98.1,147.7,95.7,147.7z"/>
			</g>
		</g>
	</g>
</g>
<g id="click_x5F_area">
	<rect class="st3" width="200" height="200"/>
</g>
</svg>
